<svg xmlns="http://www.w3.org/2000/svg" viewBox="0 0 352.02 97.35">
    <defs>
        <style>
            .cls-1 {
                fill: #506DA6;
            }
            .cls-2 {
                fill: #fee600;
                fill-rule: evenodd;
            }
        </style>
    </defs>
    <title>Asset 5</title>
    <g id="Layer_2" data-name="Layer 2">
        <g id="Layer_1-2" data-name="Layer 1">
            <path
                class="cls-1"
                d="M200.18,10.48a35.92,35.92,0,0,0-10.48,23.2h10.43a25.63,25.63,0,0,1,23.26-23.26V0a35.89,35.89,0,0,0-23.21,10.48"
            />
            <path
                class="cls-1"
                d="M261.6,38.22H251.18a25.63,25.63,0,0,1-23.26,23.25,36.4,36.4,0,0,0,2.15,10.23A36.08,36.08,0,0,0,261.6,95.16V84.74a25.64,25.64,0,0,1-21.44-15.81A36.08,36.08,0,0,0,261.6,38.22"
            />
            <rect
                class="cls-1"
                x="189.7"
                y="38.22"
                width="10.42"
                height="56.94"
            />
            <path
                class="cls-2"
                d="M225.66,25A10.94,10.94,0,1,1,214.71,36,10.94,10.94,0,0,1,225.66,25"
            />
            <path
                class="cls-1"
                d="M47.72,97.35a50.62,50.62,0,0,1-24.51-5.94,44.9,44.9,0,0,1-17-16.5A46.06,46.06,0,0,1,0,51.18a45.36,45.36,0,0,1,6.19-23.6A43.39,43.39,0,0,1,23.34,11.07,49.81,49.81,0,0,1,47.85,5,50.28,50.28,0,0,1,67.19,8.62a38.88,38.88,0,0,1,15,10.45l-8.38,8.12a33.63,33.63,0,0,0-25.41-10.7A36.75,36.75,0,0,0,30.18,21,33,33,0,0,0,17.41,33.51,34.83,34.83,0,0,0,12.9,51.18,35.54,35.54,0,0,0,17.41,69,33.27,33.27,0,0,0,30.18,81.36a36.85,36.85,0,0,0,18.18,4.51A33.72,33.72,0,0,0,73.77,75l8.38,8.12A40.13,40.13,0,0,1,67.06,93.74a50.46,50.46,0,0,1-19.34,3.61m108.2-23.6H108L98,96.32H84.74L125.62,6h12.77l41,90.28H165.85Zm-4.51-10.32L131.94,19.19,112.46,63.43Z"
            />
            <polygon
                class="cls-1"
                points="316.17 65.11 316.17 96.31 303.4 96.31 303.4 64.85 267.55 6.04 281.35 6.04 310.24 53.63 339.25 6.04 352.02 6.04 316.17 65.11"
            />
        </g>
    </g>
</svg>
