<svg xmlns="http://www.w3.org/2000/svg" width="20.577" height="18.401" viewBox="0 0 20.577 18.401">
  <path id="Icon_metro-users" data-name="Icon metro-users" d="M15.623,18.238v-.9A4.858,4.858,0,0,0,17.8,13.3c0-2.7,0-4.894-3.263-4.894S11.272,10.6,11.272,13.3a4.858,4.858,0,0,0,2.175,4.042v.9c-3.689.3-6.526,2.114-6.526,4.306H22.148c0-2.192-2.836-4-6.526-4.306Zm-7.491.42a10.333,10.333,0,0,1,3.4-1.367,6.135,6.135,0,0,1-.688-1,6.228,6.228,0,0,1-.79-2.989,9.656,9.656,0,0,1,.52-3.972A3.541,3.541,0,0,1,13.274,7.3c-.287-1.3-1.053-2.154-3.09-2.154-3.263,0-3.263,2.191-3.263,4.894A4.858,4.858,0,0,0,9.1,14.079v.9c-3.689.3-6.526,2.114-6.526,4.306H7.313a6.966,6.966,0,0,1,.819-.623Z" transform="translate(-2.071 -4.643)" fill="none" stroke="#000" stroke-width="1"/>
</svg>
